<!-- Generated by IcoMoon.io -->
<svg version="1.1" xmlns="http://www.w3.org/2000/svg" width="32" height="32" viewBox="0 0 32 32">
<path fill="none" stroke-linejoin="round" stroke-linecap="round" stroke-miterlimit="4" stroke-width="2.9714" stroke="currentColor" d="M3.717 25.216c0.105-0.944 0.158-1.417 0.302-1.858 0.139-0.423 0.319-0.79 0.543-1.125l-0.011 0.017c0.254-0.389 0.592-0.725 1.264-1.397l16.853-16.853c0.677-0.651 1.598-1.053 2.614-1.053 2.083 0 3.771 1.689 3.771 3.771 0 1.015-0.401 1.937-1.054 2.615l0.001-0.001-16.853 16.853c-0.672 0.672-1.008 1.010-1.394 1.264-0.32 0.213-0.687 0.394-1.079 0.523l-0.032 0.009c-0.441 0.144-0.914 0.197-1.858 0.302l-3.451 0.384z"></path>
</svg>
