<!-- Generated by IcoMoon.io -->
<svg version="1.1" xmlns="http://www.w3.org/2000/svg" width="32" height="32" viewBox="0 0 32 32">
<path d="M13.76 18.88l-3.48-3.48c-0.261-0.26-0.62-0.421-1.018-0.421-0.029 0-0.057 0.001-0.085 0.002l0.004-0c-0.43 0.002-0.819 0.177-1.101 0.459v0c-0.272 0.275-0.441 0.653-0.441 1.070 0 0.017 0 0.035 0.001 0.052l-0-0.003q0 0.68 0.44 1.12l4.56 4.56c0.275 0.272 0.653 0.441 1.070 0.441 0.017 0 0.035-0 0.052-0.001l-0.002 0c0.015 0.001 0.032 0.001 0.050 0.001 0.418 0 0.796-0.168 1.070-0.441l9.080-9.080c0.261-0.261 0.423-0.621 0.423-1.020 0-0.029-0.001-0.057-0.002-0.085l0 0.004c-0.003-0.43-0.179-0.818-0.461-1.099l-0-0c-0.275-0.272-0.653-0.441-1.070-0.441-0.017 0-0.035 0-0.052 0.001l0.003-0c-0.015-0.001-0.032-0.001-0.050-0.001-0.418 0-0.796 0.168-1.070 0.441l0-0zM16 32c-0.033 0-0.072 0-0.112 0-2.215 0-4.322-0.464-6.228-1.3l0.1 0.039c-1.973-0.851-3.658-2.004-5.081-3.42l0.001 0.001q-2.16-2.16-3.419-5.080c-0.797-1.807-1.261-3.913-1.261-6.128 0-0.039 0-0.078 0-0.118l-0 0.006q0-3.318 1.261-6.24c0.851-1.973 2.004-3.658 3.42-5.081l-0.001 0.001q2.16-2.16 5.080-3.421c1.806-0.796 3.911-1.26 6.125-1.26 0.041 0 0.081 0 0.121 0l-0.006-0q3.32 0 6.24 1.259c1.973 0.851 3.658 2.005 5.081 3.421l-0.001-0.001q2.16 2.16 3.419 5.080c0.797 1.807 1.261 3.913 1.261 6.128 0 0.039-0 0.078-0 0.118l0-0.006c0 0.033 0 0.072 0 0.112 0 2.215-0.464 4.322-1.3 6.228l0.039-0.1c-0.851 1.973-2.004 3.658-3.42 5.081l0.001-0.001q-2.16 2.16-5.080 3.419c-1.807 0.797-3.913 1.261-6.128 1.261-0.039 0-0.078-0-0.118-0l0.006 0zM16 28.8q5.32 0 9.061-3.739t3.739-9.061q0-5.32-3.739-9.061t-9.061-3.739q-5.32 0-9.059 3.739-3.741 3.741-3.741 9.061t3.741 9.061q3.739 3.739 9.059 3.739z"></path>
</svg>
